<svg width="17" height="20" viewBox="0 0 17 20" fill="none" xmlns="http://www.w3.org/2000/svg">
<path d="M8.5 8.88889C9.46065 8.88889 10.3997 8.62823 11.1985 8.13987C11.9972 7.6515 12.6198 6.95738 12.9874 6.14526C13.355 5.33315 13.4512 4.43952 13.2638 3.57738C13.0764 2.71524 12.6138 1.92332 11.9345 1.30175C11.2552 0.680183 10.3898 0.256891 9.44758 0.0854007C8.50539 -0.0860891 7.52878 0.00192571 6.64125 0.338315C5.75372 0.674705 4.99514 1.24436 4.46143 1.97525C3.92772 2.70613 3.64286 3.56542 3.64286 4.44445C3.64286 5.62319 4.15459 6.75365 5.06548 7.58714C5.97637 8.42064 7.21181 8.88889 8.5 8.88889ZM15.7857 20C16.1078 20 16.5 20 17 20C17 19.5 17 19.1836 17 18.8889C17 16.8261 16.1045 14.8478 14.5104 13.3892C12.9163 11.9306 10.7543 11.1111 8.5 11.1111C6.24566 11.1111 4.08365 11.9306 2.48959 13.3892C0.895533 14.8478 3.35923e-08 16.8261 0 18.8889C0 19.1836 0 19.5 2.5034e-06 20C0.5 20 0.892237 20 1.21429 20H15.7857Z" fill="white"/>
</svg>
