<svg width="36" height="30" viewBox="0 0 36 30" fill="none" xmlns="http://www.w3.org/2000/svg">
<path d="M2.86769 0.000168254C2.50173 -0.00550883 2.14816 0.132673 1.88304 0.384992C1.62897 0.641 1.4864 0.987058 1.4864 1.34774C1.4864 1.70842 1.62897 2.05447 1.88304 2.31048L11.2558 11.6832C11.3786 11.8074 11.5252 11.9055 11.6869 11.9716C11.8486 12.0378 12.0219 12.0705 12.1966 12.068C12.5431 12.068 12.9169 11.9475 13.1812 11.6832C13.4356 11.4274 13.5784 11.0812 13.5784 10.7205C13.5784 10.3597 13.4356 10.0135 13.1812 9.75771L3.80852 0.384992C3.68556 0.260987 3.53888 0.163007 3.37725 0.0968928C3.21561 0.0307787 3.04231 -0.00211631 2.86769 0.000168254ZM32.7388 0.000168254C32.5642 -0.00211631 32.3909 0.0307787 32.2292 0.0968928C32.0676 0.163007 31.9209 0.260987 31.798 0.384992L22.4252 9.75771C22.1708 10.0135 22.028 10.3597 22.028 10.7205C22.028 11.0812 22.1708 11.4274 22.4252 11.6832C22.6895 11.9475 23.0634 12.068 23.4099 12.068C23.5845 12.0705 23.7579 12.0378 23.9196 11.9716C24.0813 11.9055 24.2279 11.8074 24.3507 11.6832L33.7234 2.31048C33.9775 2.05447 34.1201 1.70842 34.1201 1.34774C34.1201 0.987058 33.9775 0.641 33.7234 0.384992C33.4583 0.132673 33.1048 -0.00550883 32.7388 0.000168254ZM1.36948 9.4578C0.614897 9.4578 0 10.0727 0 10.8273V14.9357C0 15.6903 0.614897 16.3052 1.36948 16.3052H2.73896V17.6747C2.73896 17.7966 5.47792 28.6305 5.47792 28.6305C5.88466 29.3577 6.22703 30 6.8474 30H28.7591C29.5137 30 29.8081 29.4002 30.1286 28.6305C30.1286 28.6305 32.8675 17.7966 32.8675 17.6747V16.3052H34.237C34.9916 16.3052 35.6065 15.6903 35.6065 14.9357V10.8273C35.6065 10.0727 34.9916 9.4578 34.237 9.4578H28.6304L25.1217 12.9678C24.5876 13.5019 23.8646 13.8223 23.11 13.8223C22.3568 13.8223 21.6761 13.5032 21.1407 12.9678C20.6831 12.5159 20.3952 11.9202 20.3253 11.2809C20.2555 10.6416 20.408 9.99781 20.7572 9.4578H14.8506C15.1997 9.99796 15.352 10.6419 15.2819 11.2812C15.2118 11.9204 14.9236 12.5161 14.4658 12.9678C13.9317 13.5019 13.2497 13.8223 12.4965 13.8223C11.7392 13.8151 11.0157 13.5078 10.4847 12.9678L6.97613 9.4578H1.36948ZM12.3253 16.3052C13.0799 16.3052 13.6948 16.9201 13.6948 17.6747V25.8916C13.6948 26.6461 13.0799 27.261 12.3253 27.261C11.5707 27.261 10.9558 26.6461 10.9558 25.8916V17.6747C10.9558 16.9201 11.5707 16.3052 12.3253 16.3052ZM17.8032 16.3052C18.5578 16.3052 19.1727 16.9201 19.1727 17.6747V25.8916C19.1727 26.6461 18.5578 27.261 17.8032 27.261C17.0487 27.261 16.4338 26.6461 16.4338 25.8916V17.6747C16.4338 16.9201 17.0487 16.3052 17.8032 16.3052ZM23.2812 16.3052C24.0357 16.3052 24.6506 16.9201 24.6506 17.6747V25.8916C24.6506 26.6461 24.0357 27.261 23.2812 27.261C22.5266 27.261 21.9117 26.6461 21.9117 25.8916V17.6747C21.9117 16.9201 22.5266 16.3052 23.2812 16.3052Z" fill="white"/>
</svg>
