<svg width="24" height="20" viewBox="0 0 24 20" fill="none" xmlns="http://www.w3.org/2000/svg">
<path d="M1.91179 0.00011217C1.66782 -0.00367255 1.43211 0.0884488 1.25536 0.256662C1.08598 0.427334 0.990933 0.658039 0.990933 0.898491C0.990933 1.13894 1.08598 1.36965 1.25536 1.54032L7.50384 7.7888C7.58572 7.8716 7.68349 7.937 7.79127 7.98109C7.89905 8.02517 8.01462 8.04703 8.13106 8.04535C8.36205 8.04535 8.61129 7.96501 8.7875 7.7888C8.9571 7.61825 9.0523 7.3875 9.0523 7.14697C9.0523 6.90645 8.9571 6.6757 8.7875 6.50514L2.53902 0.256662C2.45704 0.173991 2.35926 0.108671 2.2515 0.0645952C2.14374 0.0205191 2.02821 -0.00141087 1.91179 0.00011217ZM21.8259 0.00011217C21.7094 -0.00141087 21.5939 0.0205191 21.4862 0.0645952C21.3784 0.108671 21.2806 0.173991 21.1986 0.256662L14.9502 6.50514C14.7806 6.6757 14.6854 6.90645 14.6854 7.14697C14.6854 7.3875 14.7806 7.61825 14.9502 7.7888C15.1264 7.96501 15.3756 8.04535 15.6066 8.04535C15.723 8.04703 15.8386 8.02517 15.9464 7.98109C16.0542 7.937 16.1519 7.8716 16.2338 7.7888L22.4823 1.54032C22.6517 1.36965 22.7467 1.13894 22.7467 0.898491C22.7467 0.658039 22.6517 0.427334 22.4823 0.256662C22.3055 0.0884488 22.0698 -0.00367255 21.8259 0.00011217ZM0.912987 6.3052C0.409931 6.3052 0 6.71513 0 7.21819V9.95715C0 10.4602 0.409931 10.8701 0.912987 10.8701H1.82597V11.7831C1.82597 11.8644 3.65195 19.087 3.65195 19.087C3.9231 19.5718 4.15135 20 4.56493 20H19.1727C19.6758 20 19.8721 19.6001 20.0857 19.087C20.0857 19.087 21.9117 11.8644 21.9117 11.7831V10.8701H22.8247C23.3277 10.8701 23.7377 10.4602 23.7377 9.95715V7.21819C23.7377 6.71513 23.3277 6.3052 22.8247 6.3052H19.0869L16.7478 8.64518C16.3918 9.00125 15.9097 9.21489 15.4067 9.21489C14.9045 9.21489 14.4508 9.00216 14.0938 8.64518C13.7887 8.34393 13.5968 7.9468 13.5502 7.52061C13.5037 7.09442 13.6053 6.66521 13.8381 6.3052H9.90043C10.1331 6.66531 10.2346 7.09458 10.1879 7.52077C10.1412 7.94696 9.94906 8.34405 9.64388 8.64518C9.28782 9.00125 8.83315 9.21489 8.33101 9.21489C7.82614 9.21008 7.3438 9.0052 6.98983 8.64518L4.65075 6.3052H0.912987ZM8.21688 10.8701C8.71994 10.8701 9.12987 11.2801 9.12987 11.7831V17.261C9.12987 17.7641 8.71994 18.174 8.21688 18.174C7.71383 18.174 7.30389 17.7641 7.30389 17.261V11.7831C7.30389 11.2801 7.71383 10.8701 8.21688 10.8701ZM11.8688 10.8701C12.3719 10.8701 12.7818 11.2801 12.7818 11.7831V17.261C12.7818 17.7641 12.3719 18.174 11.8688 18.174C11.3658 18.174 10.9558 17.7641 10.9558 17.261V11.7831C10.9558 11.2801 11.3658 10.8701 11.8688 10.8701ZM15.5208 10.8701C16.0238 10.8701 16.4338 11.2801 16.4338 11.7831V17.261C16.4338 17.7641 16.0238 18.174 15.5208 18.174C15.0177 18.174 14.6078 17.7641 14.6078 17.261V11.7831C14.6078 11.2801 15.0177 10.8701 15.5208 10.8701Z" fill="white"/>
</svg>
