<svg width="14" height="18" viewBox="0 0 14 18" fill="none" xmlns="http://www.w3.org/2000/svg">
<path d="M12.3694 3.60001C11.8937 2.61259 11.1681 1.76438 10.2635 1.13816C9.3588 0.511944 8.30595 0.129102 7.20767 0.027C6.76694 -0.00899998 6.32397 -0.00899998 5.88324 0.027C4.78496 0.129102 3.73211 0.511944 2.82746 1.13816C1.9228 1.76438 1.19723 2.61259 0.721551 3.60001C0.194092 4.64188 -0.0514557 5.80185 0.00897446 6.96622C0.0694046 8.13059 0.433739 9.2594 1.06627 10.242L5.78345 17.586C5.86523 17.7129 5.9779 17.8174 6.11107 17.8897C6.24424 17.9621 6.39363 18 6.54545 18C6.69728 18 6.84667 17.9621 6.97984 17.8897C7.11301 17.8174 7.22568 17.7129 7.30746 17.586L12.0246 10.242C12.6572 9.2594 13.0215 8.13059 13.0819 6.96622C13.1424 5.80185 12.8968 4.64188 12.3694 3.60001ZM6.54545 9.00002C6.0072 9.00002 5.48104 8.84166 5.0335 8.54498C4.58596 8.2483 4.23714 7.82662 4.03116 7.33326C3.82518 6.8399 3.77129 6.29702 3.8763 5.77327C3.9813 5.24952 4.2405 4.76842 4.6211 4.39082C5.0017 4.01322 5.48662 3.75607 6.01453 3.65189C6.54244 3.54771 7.08963 3.60118 7.58691 3.80553C8.08419 4.00989 8.50922 4.35596 8.80826 4.79997C9.10729 5.24398 9.2669 5.766 9.2669 6.30001C9.26738 6.65471 9.19732 7.00603 9.06072 7.33382C8.92412 7.66161 8.72368 7.95945 8.47088 8.21026C8.21807 8.46107 7.91787 8.65994 7.58747 8.79546C7.25708 8.93098 6.90297 9.00049 6.54545 9.00002Z" fill="white"/>
</svg>
