<svg width="26" height="30" viewBox="0 0 26 30" fill="none" xmlns="http://www.w3.org/2000/svg">
<path d="M12.75 13.3333C14.191 13.3333 15.5996 12.9423 16.7977 12.2098C17.9959 11.4773 18.9297 10.4361 19.4811 9.21789C20.0326 7.99972 20.1769 6.65927 19.8957 5.36607C19.6146 4.07286 18.9207 2.88497 17.9018 1.95262C16.8829 1.02027 15.5847 0.385336 14.1714 0.128101C12.7581 -0.129134 11.2932 0.00288856 9.9619 0.507473C8.63061 1.01206 7.49274 1.86654 6.69217 2.96287C5.89161 4.0592 5.46431 5.34813 5.46431 6.66667C5.46431 8.43478 6.23191 10.1305 7.59824 11.3807C8.96458 12.631 10.8177 13.3333 12.75 13.3333ZM23.6786 30C23.923 30 24.1943 30 24.4999 30C25.0522 30 25.5 29.5523 25.5 29C25.5 28.7541 25.5 28.5401 25.5 28.3333C25.5 25.2391 24.1567 22.2717 21.7656 20.0838C19.3745 17.8958 16.1315 16.6667 12.75 16.6667C9.36851 16.6667 6.1255 17.8958 3.73441 20.0838C1.34332 22.2717 2.07816e-05 25.2391 2.07312e-05 28.3333C2.07312e-05 28.5401 1.61938e-05 28.7541 1.13645e-05 29C5.19187e-07 29.5523 0.447776 30 1.00006 30C1.30568 30 1.57704 30 1.82145 30H23.6786Z" fill="white"/>
</svg>
