<svg width="13" height="18" viewBox="0 0 13 18" fill="none" xmlns="http://www.w3.org/2000/svg">
<path fill-rule="evenodd" clip-rule="evenodd" d="M1.93577 6.86565C2.4845 9.45421 3.85373 11.814 5.81897 13.5915L8.06433 12.2952C8.3399 12.1361 8.68129 12.1499 8.93713 12.322C9.75886 12.8614 10.6897 13.2833 11.6878 13.5508C12.1305 13.6694 12.3957 14.1287 12.2771 14.5714L11.5243 17.3806C11.4057 17.8234 10.9464 18.0885 10.5037 17.9699C2.94536 15.9446 -1.53888 8.17772 0.486381 0.619353C0.605006 0.176637 1.06429 -0.0885277 1.507 0.0300977L4.32429 0.784987C4.767 0.903612 5.03217 1.36289 4.91354 1.80561C4.64394 2.81178 4.54611 3.82084 4.60237 4.80218C4.61542 5.10763 4.46691 5.4043 4.18114 5.56929L1.93577 6.86565Z" fill="white"/>
</svg>
